<svg width="20" height="20" viewBox="0 0 20 20" fill="none" xmlns="http://www.w3.org/2000/svg">
<path d="M9.99984 4.1529C11.79 4.1529 12.9975 4.92616 13.6861 5.57231L16.3766 2.94534C14.7241 1.40942 12.5738 0.466675 9.99984 0.466675C6.27125 0.466675 3.0511 2.60638 1.4834 5.7206L4.56584 8.11453C5.3391 5.81594 7.47881 4.1529 9.99984 4.1529Z" fill="white"/>
<path d="M19.152 10.2119C19.152 9.428 19.0884 8.856 18.9507 8.26282H10V11.8007H15.2539C15.148 12.6799 14.576 14.004 13.3049 14.8938L16.3132 17.2242C18.1139 15.5611 19.152 13.1142 19.152 10.2119Z" fill="white"/>
<path d="M4.57648 11.8855C4.37522 11.2923 4.2587 10.6568 4.2587 10C4.2587 9.34328 4.37522 8.70772 4.56589 8.11454L1.48344 5.72061C0.837294 7.01291 0.466553 8.46409 0.466553 10C0.466553 11.5359 0.837294 12.9871 1.48344 14.2794L4.57648 11.8855Z" fill="white"/>
<path d="M9.99999 19.5334C12.574 19.5334 14.7349 18.6859 16.3132 17.2242L13.3049 14.8938C12.4998 15.4552 11.4194 15.8471 9.99999 15.8471C7.47896 15.8471 5.33925 14.1841 4.57659 11.8855L1.49414 14.2794C3.06184 17.3936 6.2714 19.5334 9.99999 19.5334Z" fill="white"/>
</svg>
